# xmcd
# Track frame offsets:
# 183
# 12630
# 26643
# 41923
# 55910
# 71528
# 84125
# 99463
# 118790
# 130390
# 140340
# 154818
# 164933
# 178155
# 188745
# 198470
#
# Disc length: 2793 seconds
# Revision: 0
# Processed by: cddbd v1.4PL0 Copyright (c) Steve Scherf et al.
# Submitted via: VisiTrax 2.9.5.180 - For more info visit www.synapsa.com
#
DISCID=e90ae710
DTITLE=Tom T. Hall - Classic Tom T. Hall
DYEAR=1900
DGENRE=
TTITLE0=I Washed My Face In The Morning Dew
TTITLE1=Ballad Of Forty Dollars
TTITLE2=Homecoming
TTITLE3=A Week In A Country Jail
TTITLE4=Salute To A Switchblade
TTITLE5=The Year That Clayton Delaney Died
TTITLE6=Me And Jesus
TTITLE7=Old Dogs,Children And Watermelon Wine
TTITLE8=Ravishing Ruby
TTITLE9=I Love
TTITLE10=That Song Is Driving Me Crazy
TTITLE11=Country Is
TTITLE12=Faster Horses (The Cowboy And The Poet )
TTITLE13=Your Man Loves You ,Honey
TTITLE14=Fox On The Run
TTITLE15=P.S.I Love You
EXTD=
EXTT0=
EXTT1=
EXTT2=
EXTT3=
EXTT4=
EXTT5=
EXTT6=
EXTT7=
EXTT8=
EXTT9=
EXTT10=
EXTT11=
EXTT12=
EXTT13=
EXTT14=
EXTT15=
PLAYORDER=
